<svg width="21" height="12" viewBox="0 0 21 12" fill="none" xmlns="http://www.w3.org/2000/svg">
<path d="M0.800934 5.09702C0.358593 5.09702 5.126e-06 5.45561 5.126e-06 5.89795C5.126e-06 6.34029 0.358593 6.69888 0.800934 6.69888V5.09702ZM20.5896 6.46429C20.9023 6.15151 20.9023 5.64439 20.5896 5.33161L15.4925 0.234528C15.1797 -0.0782542 14.6726 -0.0782542 14.3598 0.234528C14.047 0.54731 14.047 1.05443 14.3598 1.36721L18.8905 5.89795L14.3598 10.4287C14.047 10.7415 14.047 11.2486 14.3598 11.5614C14.6726 11.8742 15.1797 11.8742 15.4925 11.5614L20.5896 6.46429ZM0.800934 6.69888H20.0232V5.09702H0.800934V6.69888Z" fill="#606060"/>
</svg>
