<svg width="28" height="15" viewBox="0 0 28 15" fill="none" xmlns="http://www.w3.org/2000/svg">
<path d="M1 6.36401C0.447715 6.36401 4.82823e-08 6.81173 0 7.36401C-4.82823e-08 7.9163 0.447715 8.36401 1 8.36401L1 6.36401ZM27.7071 8.07112C28.0976 7.6806 28.0976 7.04743 27.7071 6.65691L21.3431 0.292948C20.9526 -0.0975768 20.3195 -0.0975768 19.9289 0.292948C19.5384 0.683472 19.5384 1.31664 19.9289 1.70716L25.5858 7.36402L19.9289 13.0209C19.5384 13.4114 19.5384 14.0446 19.9289 14.4351C20.3195 14.8256 20.9526 14.8256 21.3431 14.4351L27.7071 8.07112ZM1 8.36401L27 8.36402L27 6.36402L1 6.36401L1 8.36401Z" fill="black"/>
</svg>
