<svg width="20" height="36" viewBox="0 0 20 36" fill="none" xmlns="http://www.w3.org/2000/svg">
<path d="M12.4922 0.463867V0.464844H19.0117C19.0154 0.464844 19.019 0.465411 19.0225 0.466797C19.0259 0.468228 19.0295 0.469991 19.0322 0.472656C19.0349 0.475327 19.0366 0.478882 19.0381 0.482422C19.0395 0.485849 19.041 0.48945 19.041 0.493164V7.34082L19.0322 7.36133C19.0268 7.36676 19.0193 7.37001 19.0117 7.37012H13.3115C12.3644 7.37012 11.5968 8.13786 11.5967 9.08496V12.0371H19.0117C19.0193 12.0372 19.0268 12.0405 19.0322 12.0459C19.0378 12.0514 19.041 12.0594 19.041 12.0674V19.0225C19.041 19.0302 19.0375 19.0375 19.0322 19.043C19.0268 19.0484 19.0193 19.0517 19.0117 19.0518H12.0898V34.7783C12.0898 34.7863 12.0866 34.7943 12.0811 34.7998C12.0756 34.8051 12.0681 34.8076 12.0605 34.8076H5.49023C5.48274 34.8076 5.4752 34.805 5.46973 34.7998C5.4642 34.7943 5.46095 34.7863 5.46094 34.7783V19.0518H0.494141C0.486438 19.0518 0.47819 19.0485 0.472656 19.043C0.467225 19.0374 0.464844 19.0294 0.464844 19.0215V12.0664C0.46493 12.0587 0.467402 12.0513 0.472656 12.0459C0.478186 12.0404 0.486433 12.0371 0.494141 12.0371H5.46094V8.75293L5.46191 8.74512L5.47461 8.69141V8.63672C5.47633 6.64144 5.69484 4.60304 6.6582 3.06738C7.5938 1.57608 9.28754 0.476782 12.4531 0.466797H12.4746L12.4922 0.463867Z" fill="black" stroke="black" stroke-width="0.928815"/>
</svg>
