<svg width="34" height="34" viewBox="0 0 34 34" fill="none" xmlns="http://www.w3.org/2000/svg">
<path d="M29.5233 6.53086C28.7997 5.80695 27.9406 5.23269 26.995 4.84089C26.0495 4.4491 25.036 4.24744 24.0125 4.24744C22.9889 4.24744 21.9754 4.4491 21.0299 4.84089C20.0843 5.23269 19.2252 5.80695 18.5016 6.53086L17 8.03252L15.4983 6.53086C14.0367 5.06929 12.0544 4.24819 9.98746 4.24819C7.9205 4.24819 5.9382 5.06929 4.47663 6.53086C3.01507 7.99242 2.19397 9.97473 2.19397 12.0417C2.19397 14.1087 3.01507 16.091 4.47663 17.5525L5.9783 19.0542L17 30.0759L28.0216 19.0542L29.5233 17.5525C30.2472 16.829 30.8215 15.9698 31.2133 15.0243C31.6051 14.0787 31.8067 13.0652 31.8067 12.0417C31.8067 11.0182 31.6051 10.0047 31.2133 9.0591C30.8215 8.11354 30.2472 7.25443 29.5233 6.53086Z" stroke="black" stroke-width="2.83333" stroke-linecap="round" stroke-linejoin="round"/>
</svg>
