<svg width="26" height="26" viewBox="0 0 26 26" fill="none" xmlns="http://www.w3.org/2000/svg">
<path d="M19.9472 4.49918C19.6386 4.49918 19.3369 4.5907 19.0803 4.76216C18.8237 4.93362 18.6237 5.17732 18.5056 5.46245C18.3875 5.74757 18.3566 6.06132 18.4168 6.36401C18.477 6.6667 18.6256 6.94474 18.8439 7.16296C19.0621 7.38119 19.3401 7.52981 19.6428 7.59001C19.9455 7.65022 20.2592 7.61932 20.5444 7.50122C20.8295 7.38311 21.0732 7.18311 21.2447 6.92651C21.4161 6.6699 21.5076 6.36821 21.5076 6.05959C21.5076 5.64574 21.3432 5.24885 21.0506 4.95621C20.758 4.66358 20.3611 4.49918 19.9472 4.49918ZM25.9288 7.646C25.9035 6.56711 25.7014 5.49967 25.3306 4.48618C25 3.61902 24.4854 2.83381 23.8222 2.18457C23.1783 1.51805 22.3913 1.00669 21.5206 0.689181C20.5098 0.30709 19.4412 0.100399 18.3608 0.0780204C16.9825 -7.26622e-08 16.5403 0 13.0034 0C9.46648 0 9.02437 -7.26622e-08 7.646 0.0780204C6.56562 0.100399 5.49699 0.30709 4.48618 0.689181C3.61713 1.00991 2.83076 1.52083 2.18457 2.18457C1.51805 2.82847 1.00669 3.61552 0.689181 4.48618C0.30709 5.49699 0.100399 6.56562 0.0780204 7.646C-7.26622e-08 9.02437 0 9.46648 0 13.0034C0 16.5403 -7.26622e-08 16.9825 0.0780204 18.3608C0.100399 19.4412 0.30709 20.5098 0.689181 21.5206C1.00669 22.3913 1.51805 23.1783 2.18457 23.8222C2.83076 24.486 3.61713 24.9969 4.48618 25.3176C5.49699 25.6997 6.56562 25.9064 7.646 25.9288C9.02437 26.0068 9.46648 26.0068 13.0034 26.0068C16.5403 26.0068 16.9825 26.0068 18.3608 25.9288C19.4412 25.9064 20.5098 25.6997 21.5206 25.3176C22.3913 25.0001 23.1783 24.4888 23.8222 23.8222C24.4883 23.1754 25.0034 22.3895 25.3306 21.5206C25.7014 20.5072 25.9035 19.4397 25.9288 18.3608C25.9288 16.9825 26.0068 16.5403 26.0068 13.0034C26.0068 9.46648 26.0068 9.02437 25.9288 7.646ZM23.5882 18.2048C23.5787 19.0302 23.4292 19.848 23.1461 20.6234C22.9384 21.1893 22.605 21.7006 22.1708 22.1188C21.749 22.5486 21.2388 22.8814 20.6754 23.0941C19.9 23.3772 19.0822 23.5267 18.2568 23.5362C16.9564 23.6012 16.4753 23.6142 13.0554 23.6142C9.63553 23.6142 9.1544 23.6142 7.85406 23.5362C6.99699 23.5522 6.14358 23.4202 5.3314 23.1461C4.79277 22.9225 4.30589 22.5905 3.90102 22.1708C3.46942 21.7531 3.14012 21.2413 2.93877 20.6754C2.6213 19.8889 2.44522 19.0525 2.41863 18.2048C2.41863 16.9044 2.34061 16.4233 2.34061 13.0034C2.34061 9.58351 2.34061 9.10239 2.41863 7.80205C2.42446 6.9582 2.57851 6.12193 2.87375 5.3314C3.10267 4.78254 3.45405 4.29328 3.90102 3.90102C4.29608 3.45392 4.78433 3.09884 5.3314 2.86075C6.12402 2.57473 6.95942 2.42524 7.80205 2.41863C9.10239 2.41863 9.58351 2.34061 13.0034 2.34061C16.4233 2.34061 16.9044 2.34061 18.2048 2.41863C19.0302 2.4281 19.848 2.5776 20.6234 2.86075C21.2143 3.08006 21.7447 3.4366 22.1708 3.90102C22.5969 4.30046 22.9299 4.78881 23.1461 5.3314C23.4351 6.12322 23.5847 6.95914 23.5882 7.80205C23.6532 9.10239 23.6662 9.58351 23.6662 13.0034C23.6662 16.4233 23.6532 16.9044 23.5882 18.2048ZM13.0034 6.33266C11.6846 6.33523 10.3962 6.72865 9.30089 7.4632C8.2056 8.19775 7.35262 9.24048 6.84972 10.4596C6.34682 11.6788 6.21657 13.0196 6.47543 14.3128C6.73429 15.6059 7.37064 16.7933 8.30408 17.7249C9.23751 18.6565 10.4261 19.2906 11.7198 19.5469C13.0134 19.8033 14.354 19.6704 15.5722 19.1651C16.7904 18.6598 17.8314 17.8048 18.5638 16.7081C19.2963 15.6114 19.6872 14.3222 19.6872 13.0034C19.6889 12.1258 19.5171 11.2565 19.1816 10.4456C18.8462 9.63462 18.3537 8.89799 17.7326 8.27804C17.1114 7.65809 16.3738 7.16706 15.5622 6.8332C14.7506 6.49934 13.881 6.32923 13.0034 6.33266ZM13.0034 17.3335C12.147 17.3335 11.3098 17.0796 10.5977 16.6038C9.88563 16.128 9.33062 15.4517 9.00289 14.6605C8.67515 13.8693 8.5894 12.9986 8.75648 12.1586C8.92356 11.3187 9.33596 10.5471 9.94154 9.94154C10.5471 9.33596 11.3187 8.92356 12.1586 8.75648C12.9986 8.5894 13.8693 8.67515 14.6605 9.00289C15.4517 9.33062 16.128 9.88563 16.6038 10.5977C17.0796 11.3098 17.3335 12.147 17.3335 13.0034C17.3335 13.5721 17.2215 14.1351 17.0039 14.6605C16.7863 15.1858 16.4674 15.6632 16.0653 16.0653C15.6632 16.4674 15.1858 16.7863 14.6605 17.0039C14.1351 17.2215 13.5721 17.3335 13.0034 17.3335Z" fill="black"/>
</svg>
