<svg width="28" height="23" viewBox="0 0 28 23" fill="none" xmlns="http://www.w3.org/2000/svg">
<path d="M27.8644 2.71762C26.8172 3.17194 25.7097 3.47228 24.5764 3.60928C25.7721 2.89501 26.668 1.77132 27.0982 0.446667C25.9746 1.1155 24.7447 1.58674 23.4619 1.83989C22.6044 0.910014 21.4625 0.291039 20.2154 0.080043C18.9682 -0.130953 17.6863 0.0779629 16.5707 0.674027C15.4551 1.27009 14.5688 2.21959 14.051 3.3736C13.5331 4.52761 13.413 5.82087 13.7093 7.05054C11.4376 6.93564 9.21539 6.34411 7.18715 5.31439C5.15892 4.28467 3.36999 2.8398 1.93658 1.07362C1.43382 1.95158 1.16964 2.94586 1.17031 3.95759C1.16852 4.89715 1.3991 5.82258 1.8415 6.65147C2.2839 7.48037 2.9244 8.18701 3.70597 8.70848C2.79756 8.68376 1.90856 8.44 1.11458 7.99793V8.06759C1.12139 9.38404 1.58269 10.6577 2.42047 11.6732C3.25824 12.6887 4.42105 13.3836 5.71221 13.6405C5.21519 13.7917 4.69916 13.8715 4.17967 13.8773C3.82006 13.8731 3.46135 13.8405 3.10689 13.7798C3.47457 14.9122 4.18611 15.9019 5.14249 16.6111C6.09887 17.3202 7.25252 17.7136 8.44293 17.7366C6.43279 19.3182 3.95102 20.1815 1.39322 20.1886C0.927517 20.1902 0.462181 20.1622 0 20.105C2.6115 21.7912 5.65483 22.6863 8.76337 22.6825C10.9085 22.7048 13.0366 22.2994 15.0233 21.49C17.01 20.6806 18.8155 19.4835 20.3344 17.9685C21.8532 16.4535 23.055 14.6511 23.8695 12.6665C24.6839 10.6819 25.0948 8.55484 25.078 6.40966C25.078 6.17281 25.078 5.92203 25.078 5.67125C26.1713 4.85595 27.1142 3.85647 27.8644 2.71762Z" fill="black"/>
</svg>
